<svg version="1.0" xmlns="http://www.w3.org/2000/svg"
 width="512.000000pt" height="512.000000pt" viewBox="0 0 512.000000 512.000000"
 preserveAspectRatio="xMidYMid meet">

<g transform="translate(0.000000,512.000000) scale(0.100000,-0.100000)"
fill="#000000" stroke="none">
<path d="M1675 5024 c-308 -68 -548 -313 -611 -624 -20 -99 -15 -271 10 -365
59 -218 223 -413 431 -511 120 -56 213 -76 350 -76 189 1 355 61 501 181 290
240 370 651 193 991 -95 183 -279 333 -479 390 -101 29 -296 36 -395 14z m287
-148 c233 -42 428 -216 500 -446 19 -62 23 -96 23 -195 -1 -104 -5 -130 -27
-193 -37 -104 -83 -176 -158 -252 -117 -117 -250 -177 -416 -187 -430 -27
-763 373 -663 796 6 25 29 84 51 130 57 120 169 232 289 289 46 22 109 45 139
51 30 6 64 13 75 15 42 8 113 5 187 -8z"/>
<path d="M3311 5024 c-176 -47 -323 -195 -371 -372 -16 -62 -13 -198 6 -262
51 -172 193 -317 352 -359 49 -14 47 -2 26 -176 -20 -169 -20 -200 0 -230 34
-51 57 -42 436 180 l351 205 232 0 c258 0 315 9 420 61 77 39 182 144 219 219
149 300 -8 652 -327 735 -85 22 -1262 21 -1344 -1z m1359 -170 c215 -102 283
-363 142 -549 -21 -27 -59 -65 -86 -82 -84 -57 -121 -63 -405 -63 l-256 0
-290 -169 c-234 -136 -291 -166 -293 -151 -2 9 3 67 11 127 8 61 12 123 10
137 -7 36 -36 52 -102 60 -114 12 -228 96 -279 204 -23 49 -27 70 -27 152 0
82 4 103 27 152 49 104 148 187 250 208 24 4 311 8 638 7 l595 -2 65 -31z"/>
<path d="M3730 4643 c-57 -22 -70 -96 -24 -132 26 -20 39 -21 309 -21 270 0
283 1 309 21 32 25 35 75 7 110 l-19 24 -284 2 c-155 1 -290 -1 -298 -4z"/>
<path d="M532 3090 c-109 -29 -187 -74 -273 -160 -60 -59 -85 -93 -117 -160
-22 -47 -45 -109 -51 -138 -7 -35 -11 -286 -11 -752 l0 -699 26 -20 c27 -21
28 -21 1215 -21 1157 0 1188 0 1194 -19 4 -14 -26 -64 -110 -181 -63 -89 -115
-171 -115 -181 0 -39 32 -77 223 -266 179 -178 197 -193 230 -193 29 0 63 20
194 113 145 104 160 113 185 103 29 -11 25 5 69 -261 33 -202 0 -185 363 -185
292 0 295 0 320 23 23 20 29 41 58 215 30 186 32 194 58 207 26 14 32 11 186
-100 130 -94 165 -115 193 -115 33 0 52 17 243 208 191 191 208 210 208 243 0
28 -21 63 -115 193 -111 154 -114 160 -100 186 13 26 21 28 207 58 174 29 195
35 216 58 22 25 22 29 22 315 l0 291 -27 27 c-25 25 -45 30 -203 56 -206 33
-218 37 -226 69 -5 20 14 52 103 178 60 84 113 161 116 171 14 37 -26 87 -220
280 -172 170 -203 197 -230 197 -23 0 -70 -28 -191 -116 -156 -111 -162 -115
-189 -102 -26 13 -28 20 -59 203 -30 172 -36 192 -59 213 -26 22 -30 22 -305
22 -279 0 -280 0 -357 28 l-78 27 -1260 2 c-1214 2 -1263 1 -1333 -17z m2611
-147 l59 -16 -6 -46 c-3 -25 -13 -94 -22 -153 -16 -104 -17 -107 -46 -117 -36
-13 -19 -22 -204 111 -108 77 -159 108 -180 108 -24 0 -63 -35 -241 -213 -179
-179 -213 -217 -213 -241 0 -21 30 -72 108 -180 134 -186 124 -170 111 -200
-13 -28 -6 -26 -219 -61 -205 -33 -197 -31 -215 -65 -12 -24 -15 -77 -15 -300
l0 -270 -590 0 -589 0 -3 274 c-3 253 -4 276 -22 295 -29 32 -88 29 -115 -5
-20 -26 -21 -39 -21 -296 l0 -268 -242 2 -243 3 -3 615 c-1 384 2 635 8 669
30 164 150 301 308 352 54 17 123 18 1296 18 1127 1 1245 -1 1299 -16z m622
-65 c3 -13 16 -94 29 -180 14 -87 29 -165 34 -174 11 -19 175 -94 206 -94 17
0 70 35 254 170 l73 53 140 -139 c76 -76 139 -143 139 -147 0 -5 -45 -71 -99
-146 -55 -75 -105 -149 -111 -163 -11 -23 -7 -38 26 -118 32 -75 45 -95 69
-106 17 -7 104 -25 194 -38 90 -14 168 -29 173 -34 5 -5 7 -96 6 -202 l-3
-194 -185 -28 c-101 -16 -193 -34 -203 -41 -26 -18 -99 -186 -91 -212 4 -11
56 -87 116 -170 l108 -149 -142 -143 c-78 -78 -146 -139 -152 -135 -6 3 -74
52 -151 108 -77 56 -149 104 -160 108 -26 8 -194 -65 -212 -91 -7 -10 -25 -99
-40 -198 l-28 -180 -202 -3 c-112 -1 -203 0 -203 4 0 27 -53 345 -61 365 -15
37 -185 114 -222 100 -13 -5 -89 -57 -168 -115 l-144 -105 -144 144 -144 143
111 153 c62 84 112 162 112 173 0 31 -70 204 -85 210 -7 2 -95 17 -194 33
l-181 28 0 202 c0 112 2 203 5 203 35 0 338 54 360 64 24 11 37 30 68 103 20
49 37 97 37 105 0 9 -49 83 -110 166 -61 82 -110 154 -110 159 0 4 63 71 139
147 l140 139 43 -28 c24 -16 86 -60 138 -99 52 -39 104 -76 115 -83 25 -15 60
-16 83 -3 9 6 47 23 83 39 80 35 80 36 108 231 12 80 24 155 26 168 5 22 6 22
205 22 199 0 200 0 205 -22z"/>
<path d="M3394 2295 c-294 -67 -519 -303 -574 -599 -17 -93 -8 -251 20 -341
64 -205 204 -368 395 -460 103 -50 191 -69 320 -69 135 1 207 18 335 81 80 39
109 61 186 137 76 77 98 106 137 186 63 128 80 200 81 335 0 134 -20 220 -75
331 -92 187 -248 319 -454 384 -90 28 -280 36 -371 15z m316 -161 c159 -45
299 -161 368 -305 47 -99 62 -162 62 -266 0 -160 -55 -289 -175 -408 -119
-120 -248 -175 -408 -175 -104 0 -167 15 -266 62 -145 69 -258 207 -307 373
-21 73 -23 209 -5 285 46 193 204 365 387 425 115 37 232 40 344 9z"/>
</g>
</svg>
