<svg version="1.0" xmlns="http://www.w3.org/2000/svg"
 width="512.000000pt" height="512.000000pt" viewBox="0 0 512.000000 512.000000"
 preserveAspectRatio="xMidYMid meet">

<g transform="translate(0.000000,512.000000) scale(0.100000,-0.100000)"
fill="#000000" stroke="none">
<path d="M2165 5019 c-194 -28 -306 -116 -341 -268 -9 -38 -20 -61 -36 -71
-13 -8 -44 -34 -69 -58 -91 -83 -118 -197 -119 -494 l0 -196 -54 -31 c-99 -56
-142 -148 -134 -289 8 -138 81 -252 201 -312 33 -16 66 -30 72 -30 7 0 26 -45
44 -99 55 -174 168 -368 270 -465 l31 -30 0 -142 0 -142 -42 -16 c-24 -9 -99
-35 -168 -60 -207 -72 -374 -143 -585 -246 -308 -151 -485 -268 -640 -424
-103 -104 -155 -186 -190 -301 -30 -97 -157 -858 -156 -935 1 -111 89 -232
209 -288 l57 -27 2045 0 2045 0 57 27 c120 56 207 176 209 288 1 77 -126 838
-156 935 -36 117 -87 197 -195 305 -238 240 -641 459 -1231 669 l-194 69 -3
147 -3 148 54 56 c103 109 186 253 241 424 l33 99 51 17 c150 51 242 176 250
342 7 145 -37 232 -142 284 l-55 27 -3 331 c-4 360 -5 363 -68 487 -32 63
-135 161 -201 194 -103 50 -148 56 -469 71 -339 16 -525 17 -615 4z m615 -143
c303 -14 325 -18 417 -65 56 -28 128 -111 155 -179 22 -55 23 -68 26 -412 2
-319 0 -361 -16 -415 l-18 -59 -22 36 c-33 53 -70 170 -88 273 -17 99 -29 119
-83 136 -109 35 -200 109 -245 197 -31 61 -58 82 -108 82 -50 0 -73 -25 -83
-86 -12 -84 -57 -149 -127 -185 -34 -17 -62 -19 -333 -19 -321 0 -360 -5 -369
-52 -3 -13 -7 -63 -10 -113 -7 -108 -26 -188 -68 -275 l-31 -65 -15 70 c-12
54 -16 135 -16 350 -1 353 2 364 109 461 74 65 85 83 106 164 16 64 45 99 103
126 100 46 237 51 716 30z m240 -783 l64 -32 27 -110 c32 -131 82 -240 147
-318 l47 -58 -11 -130 c-13 -150 -30 -223 -83 -345 -99 -230 -263 -395 -460
-463 -424 -146 -854 207 -932 767 l-12 84 40 49 c54 65 88 126 118 211 24 68
55 220 55 268 l0 23 288 3 c270 3 290 4 334 25 56 26 137 99 163 147 l19 35
66 -62 c36 -34 94 -76 130 -94z m540 -356 c28 -45 27 -146 -1 -204 -21 -44
-92 -113 -116 -113 -8 0 -11 9 -8 28 2 15 7 59 10 97 3 39 18 109 32 157 24
80 28 86 45 77 10 -6 28 -25 38 -42z m-1917 -105 c16 -81 27 -160 25 -177 l-4
-30 -46 47 c-28 28 -51 63 -57 85 -14 50 -14 139 0 166 14 26 40 57 48 57 3 0
19 -66 34 -148z m717 -1143 c61 -19 97 -23 195 -23 135 0 204 15 323 69 l72
34 0 -102 0 -102 -191 -222 c-105 -123 -194 -223 -199 -223 -4 0 -94 100 -199
222 l-191 221 0 104 0 103 58 -29 c32 -16 91 -40 132 -52z m-84 -464 c93 -108
170 -199 171 -203 2 -6 -400 -251 -426 -260 -8 -3 -261 557 -261 577 0 5 71
33 158 64 153 54 157 55 173 36 10 -10 93 -107 185 -214z m1052 132 c17 -6 32
-16 32 -22 0 -11 -246 -564 -254 -573 -6 -6 -436 252 -433 260 1 4 85 103 186
221 l185 215 125 -45 c69 -25 141 -50 159 -56z m-1374 -807 c167 -377 332
-745 365 -819 34 -74 60 -138 59 -142 -5 -11 -933 672 -932 685 1 7 63 115
138 241 75 125 136 238 136 250 0 41 -33 62 -183 120 -81 32 -146 61 -145 65
10 23 244 297 250 292 4 -4 144 -315 312 -692z m1655 545 c67 -79 121 -146
121 -148 0 -3 -66 -30 -147 -62 -149 -57 -183 -80 -183 -118 0 -12 64 -128
141 -259 78 -132 139 -242 135 -245 -18 -18 -932 -681 -934 -678 -2 2 99 234
226 517 126 282 291 654 368 826 76 171 142 312 145 312 4 0 61 -65 128 -145z
m-2206 93 c-6 -7 -53 -66 -106 -131 -101 -123 -112 -148 -79 -185 14 -16 154
-76 304 -131 l27 -10 -141 -236 c-127 -212 -141 -239 -132 -263 7 -20 149
-129 536 -412 l526 -385 -881 -3 c-983 -2 -941 -5 -1009 66 -47 49 -60 76 -59
125 1 77 138 860 160 915 66 165 238 325 536 497 84 49 312 165 324 165 2 0
-1 -6 -6 -12z m2456 -57 c228 -115 420 -242 542 -358 87 -83 137 -153 169
-234 23 -56 160 -840 161 -915 1 -50 -17 -88 -63 -131 -68 -65 -29 -63 -1006
-63 l-886 0 126 92 c70 51 305 223 523 382 218 159 403 299 411 310 8 11 14
27 14 36 0 8 -63 119 -139 247 l-139 232 156 61 c86 34 165 71 175 82 32 37
21 62 -80 185 -129 157 -121 145 -91 134 14 -5 71 -32 127 -60z m-1213 -262
c46 -28 84 -54 84 -57 0 -4 -38 -45 -85 -92 l-85 -85 -85 85 c-47 47 -84 88
-83 92 3 7 157 107 167 108 2 0 41 -23 87 -51z m-242 -582 c-42 -126 -77 -227
-79 -225 -2 2 -49 107 -105 233 -57 127 -113 253 -125 281 l-23 50 91 56 92
56 113 -112 112 -111 -76 -228z m626 299 c-45 -104 -223 -503 -230 -515 -4 -9
-36 71 -84 215 l-76 229 111 111 111 112 93 -56 93 -56 -18 -40z m-394 -509
l71 -213 -70 -157 c-38 -86 -73 -157 -77 -157 -4 0 -38 71 -77 157 l-70 158
71 213 c39 116 73 212 76 212 3 0 37 -96 76 -213z"/>
</g>
</svg>
