<svg version="1.0" xmlns="http://www.w3.org/2000/svg"
 width="512.000000pt" height="512.000000pt" viewBox="0 0 512.000000 512.000000"
 preserveAspectRatio="xMidYMid meet">

<g transform="translate(0.000000,512.000000) scale(0.100000,-0.100000)"
fill="#000000" stroke="none">
<path d="M2375 5105 c-147 -27 -238 -77 -397 -219 -84 -74 -99 -83 -153 -94
-141 -28 -239 -105 -301 -236 -59 -124 -75 -225 -81 -516 l-6 -255 -28 -32
c-111 -127 -17 -439 158 -524 24 -12 46 -27 47 -33 46 -181 95 -293 181 -411
l57 -79 -18 -78 -17 -78 -33 6 c-18 3 -42 3 -53 -1 -13 -4 -55 -57 -101 -124
-89 -134 -56 -116 -302 -170 -237 -53 -354 -109 -485 -235 -125 -118 -198
-236 -250 -403 l-28 -88 -3 -743 -3 -742 25 -25 c33 -33 79 -33 111 0 l25 24
0 701 c0 785 0 788 70 936 104 224 271 351 545 413 72 16 131 29 132 28 0 -1
-59 -153 -133 -337 -74 -184 -134 -345 -134 -357 0 -12 20 -45 44 -72 197
-222 345 -629 419 -1155 21 -148 27 -172 47 -188 32 -26 76 -23 105 7 24 23
25 29 25 162 0 190 -19 621 -39 903 -10 129 -17 236 -16 237 0 1 25 -57 55
-130 29 -73 95 -215 146 -317 140 -279 268 -464 423 -613 l71 -69 0 -74 c0
-66 3 -78 25 -99 32 -33 78 -33 110 0 22 21 25 33 25 99 l0 74 71 69 c155 149
283 334 423 613 51 102 117 244 146 317 30 73 55 131 55 130 1 -1 -4 -74 -11
-162 -21 -268 -34 -526 -41 -826 l-6 -287 26 -26 c31 -31 75 -34 107 -8 20 16
26 40 47 188 74 526 222 933 419 1155 24 27 44 60 44 72 0 12 -60 173 -134
357 -74 184 -133 336 -133 337 9 8 274 -64 330 -90 149 -70 272 -192 342 -339
72 -151 68 -105 74 -921 l6 -739 24 -19 c33 -27 77 -24 107 6 l25 25 -3 742
c-4 739 -4 743 -26 817 -53 173 -130 299 -255 417 -137 131 -248 182 -526 245
-96 21 -175 39 -177 39 -2 0 -40 54 -83 119 -46 68 -89 122 -102 126 -11 4
-35 4 -53 1 l-33 -6 -18 78 -18 79 50 69 c90 126 129 207 168 349 21 78 23 81
66 101 140 67 242 302 198 457 -5 21 -23 53 -40 71 l-29 34 0 158 c0 253 -34
431 -115 601 -54 115 -92 170 -174 257 -158 164 -359 261 -624 300 -124 19
-295 19 -392 1z m375 -160 c317 -48 538 -198 663 -450 75 -150 107 -315 107
-547 0 -136 -1 -148 -18 -148 -13 0 -33 29 -70 103 -64 127 -98 169 -166 201
-112 53 -235 73 -670 106 -295 23 -455 49 -529 86 -95 47 -140 21 -150 -89
-11 -118 -76 -248 -182 -364 l-60 -66 -39 14 -39 14 6 240 c6 259 16 332 63
436 45 99 137 159 246 159 35 0 48 9 139 95 196 185 277 221 504 224 55 0 143
-6 195 -14z m-575 -849 c93 -19 216 -33 470 -51 341 -25 488 -47 548 -83 43
-25 79 -79 127 -194 l40 -97 0 -184 c0 -278 -33 -407 -149 -584 -169 -256
-457 -436 -671 -421 -228 17 -525 232 -669 483 -87 151 -111 262 -111 506 l0
167 61 62 c108 110 195 247 228 355 7 22 14 46 17 53 2 8 12 11 21 8 10 -3 50
-12 88 -20z m-597 -452 c21 -6 22 -11 22 -121 0 -97 -2 -114 -14 -104 -34 29
-77 177 -63 215 7 17 19 19 55 10z m2016 -54 c-1 -56 -34 -149 -60 -171 -12
-10 -14 7 -14 104 0 124 2 128 55 124 18 -2 20 -9 19 -57z m-1534 -1071 c88
-67 267 -154 370 -180 190 -48 415 15 632 179 39 29 71 52 73 50 1 -2 7 -25
14 -53 7 -27 14 -58 17 -67 4 -13 -71 -77 -295 -257 -165 -133 -305 -241 -311
-241 -19 0 -612 481 -607 493 2 7 10 38 17 70 7 31 16 57 19 57 3 -1 35 -23
71 -51z m49 -419 c176 -140 320 -257 320 -260 0 -8 -246 -200 -255 -199 -8 0
-446 559 -466 593 -7 13 62 127 74 123 4 -1 151 -117 327 -257z m1273 203 c20
-31 34 -62 30 -69 -20 -34 -458 -593 -466 -593 -9 -1 -255 191 -255 199 0 6
641 519 649 519 3 1 22 -25 42 -56z m-1788 -678 c21 -211 57 -634 56 -655 0
-3 -17 36 -38 85 -50 120 -123 252 -183 331 -27 36 -49 70 -49 77 0 27 174
447 181 435 4 -7 19 -130 33 -273z m2060 65 c47 -118 86 -220 86 -227 0 -6
-24 -44 -53 -83 -61 -80 -133 -212 -183 -333 -18 -45 -33 -77 -34 -72 -1 25
33 414 55 645 24 238 32 296 40 288 2 -2 42 -100 89 -218z m-1705 -30 c79
-102 152 -193 163 -202 35 -31 70 -22 144 37 38 30 71 55 74 55 3 0 20 -28 37
-63 l31 -63 -44 -369 c-24 -204 -44 -379 -44 -390 -2 -79 -221 337 -346 657
-51 131 -163 459 -178 523 -10 40 -10 40 163 -185z m1351 74 c-74 -237 -162
-470 -251 -667 -60 -130 -179 -349 -214 -392 -21 -26 -24 -27 -25 -10 0 11
-20 186 -44 390 l-44 369 31 63 c17 35 34 63 37 63 3 0 36 -25 74 -55 77 -62
113 -70 149 -32 12 12 89 109 171 214 82 106 151 191 153 189 2 -1 -15 -61
-37 -132z m-685 -40 l44 -36 -34 -69 c-32 -62 -38 -69 -65 -69 -27 0 -33 7
-65 69 l-34 69 42 36 c23 19 48 35 55 36 8 0 33 -16 57 -36z m-42 -371 c3 -21
27 -223 53 -449 l48 -410 -26 -35 c-15 -19 -41 -45 -57 -57 l-31 -23 -31 23
c-16 12 -42 38 -57 57 l-26 35 48 410 c55 479 56 486 66 486 4 0 10 -17 13
-37z"/>
<path d="M905 4935 c-14 -13 -25 -31 -25 -40 0 -8 -7 -15 -16 -15 -77 0 -189
-88 -212 -166 -28 -94 -8 -169 63 -239 63 -64 100 -75 244 -75 105 0 113 -1
136 -25 16 -15 25 -36 25 -55 0 -19 -9 -40 -25 -55 -23 -24 -28 -25 -175 -25
-147 0 -152 -1 -175 -25 -33 -32 -33 -78 0 -110 19 -20 34 -25 77 -25 50 0 54
-2 68 -33 9 -18 27 -36 43 -41 39 -14 79 3 97 41 8 18 21 33 29 33 75 1 186
90 209 166 28 94 8 169 -63 239 -63 64 -100 75 -244 75 -105 0 -113 1 -136 25
-33 32 -33 78 0 110 23 24 28 25 175 25 147 0 152 1 175 25 33 32 33 78 0 110
-20 21 -34 25 -80 25 -43 0 -55 3 -55 15 0 27 -47 65 -80 65 -19 0 -40 -9 -55
-25z"/>
<path d="M4105 3335 c-14 -13 -25 -31 -25 -40 0 -8 -7 -15 -16 -15 -108 0
-224 -125 -224 -240 0 -63 23 -114 75 -165 63 -64 100 -75 244 -75 105 0 113
-1 136 -25 16 -15 25 -36 25 -55 0 -19 -9 -40 -25 -55 -23 -24 -28 -25 -175
-25 -147 0 -152 -1 -175 -25 -33 -32 -33 -78 0 -110 19 -20 34 -25 77 -25 50
0 54 -2 68 -33 29 -62 111 -62 140 0 8 18 21 33 29 33 75 1 186 90 209 166 28
94 8 169 -63 239 -63 64 -100 75 -244 75 -105 0 -113 1 -136 25 -33 32 -33 78
0 110 23 24 28 25 175 25 147 0 152 1 175 25 33 32 33 78 0 110 -20 21 -34 25
-80 25 -43 0 -55 3 -55 15 0 27 -47 65 -80 65 -19 0 -40 -9 -55 -25z"/>
<path d="M1385 695 l-25 -24 0 -311 0 -311 25 -24 c32 -33 78 -33 110 0 l25
24 0 311 0 311 -25 24 c-15 16 -36 25 -55 25 -19 0 -40 -9 -55 -25z"/>
<path d="M3625 695 l-25 -24 0 -311 0 -311 25 -24 c15 -16 36 -25 55 -25 19 0
40 9 55 25 l25 24 0 311 0 311 -25 24 c-15 16 -36 25 -55 25 -19 0 -40 -9 -55
-25z"/>
</g>
</svg>
