<svg version="1.0" xmlns="http://www.w3.org/2000/svg"
 width="512.000000pt" height="512.000000pt" viewBox="0 0 512.000000 512.000000"
 preserveAspectRatio="xMidYMid meet">

<g transform="translate(0.000000,512.000000) scale(0.100000,-0.100000)"
fill="#000000" stroke="none">
<path d="M3975 5019 c-320 -42 -606 -251 -740 -543 -61 -132 -79 -222 -79
-391 1 -173 17 -250 83 -390 49 -104 88 -163 165 -244 198 -207 460 -313 739
-298 441 23 801 337 884 772 22 117 13 302 -21 418 -116 391 -454 659 -861
680 -55 3 -131 1 -170 -4z m283 -165 c459 -94 737 -573 587 -1014 -69 -203
-204 -355 -400 -450 -124 -60 -218 -82 -355 -81 -367 1 -683 252 -766 608 -20
88 -20 249 1 343 67 295 306 529 610 595 83 19 231 18 323 -1z"/>
<path d="M4045 4675 c-14 -13 -25 -35 -25 -48 0 -20 -11 -30 -54 -51 -108 -53
-170 -153 -170 -271 1 -165 112 -280 293 -304 66 -9 79 -14 110 -46 34 -33 36
-39 36 -99 0 -55 -4 -68 -25 -91 -35 -37 -72 -55 -117 -55 -72 0 -143 68 -143
138 0 68 -79 106 -131 63 -21 -17 -24 -27 -22 -75 4 -105 69 -203 169 -252 41
-20 54 -32 54 -48 0 -31 40 -66 76 -66 36 0 74 35 74 68 0 16 12 27 48 42 107
46 176 155 176 275 0 163 -113 282 -288 303 -35 5 -76 16 -90 26 -89 58 -86
189 6 247 52 32 128 22 173 -21 22 -21 37 -47 41 -69 9 -54 25 -91 45 -101 31
-17 69 -11 96 16 23 23 25 31 20 74 -13 110 -84 208 -179 250 -41 18 -48 25
-48 49 0 35 -37 71 -74 71 -15 0 -37 -10 -51 -25z"/>
<path d="M806 4186 c-131 -48 -245 -167 -282 -294 -77 -265 114 -595 372 -643
300 -56 584 329 484 655 -37 120 -144 231 -270 281 -28 11 -81 19 -140 22 -83
3 -104 1 -164 -21z m261 -151 c137 -57 211 -215 168 -360 -23 -81 -49 -129
-98 -183 -51 -55 -126 -92 -186 -92 -166 0 -331 256 -282 437 16 57 68 132
118 167 79 55 192 68 280 31z"/>
<path d="M2074 3885 c-41 -20 -95 -75 -285 -287 -383 -429 -435 -484 -476
-504 -35 -18 -71 -19 -493 -24 l-455 -5 -65 -31 c-80 -38 -149 -105 -187 -182
l-28 -57 0 -460 0 -460 28 -56 c42 -85 98 -143 179 -184 39 -19 79 -35 89 -35
18 0 19 -21 19 -608 0 -668 1 -681 60 -768 40 -58 105 -100 181 -120 95 -24
189 -3 274 62 l36 27 27 -26 c78 -75 231 -94 335 -44 64 32 120 90 151 156 21
46 21 49 26 1136 l5 1091 445 497 c245 274 456 519 470 545 37 69 35 158 -5
230 -65 119 -213 166 -331 107z m140 -135 c71 -27 89 -102 39 -161 -16 -18
-225 -254 -466 -523 -242 -270 -443 -501 -448 -514 -5 -14 -9 -482 -9 -1110 0
-1067 0 -1088 -20 -1120 -54 -89 -175 -97 -250 -17 l-25 27 -5 630 -5 630 -28
24 c-36 31 -71 31 -102 -1 l-25 -24 0 -608 0 -609 -22 -44 c-31 -58 -76 -83
-146 -77 -61 4 -99 28 -124 78 -17 32 -18 106 -18 1123 0 971 -1 1092 -15
1113 -24 36 -57 48 -91 32 -53 -26 -54 -33 -54 -451 0 -319 -2 -388 -13 -388
-27 0 -96 60 -124 107 l-28 48 -3 375 c-2 206 -1 399 3 427 9 73 55 140 120
173 l49 25 456 5 c447 5 456 5 504 28 28 12 65 34 83 48 18 14 173 181 343
372 171 191 325 357 342 370 35 25 45 26 82 12z"/>
<path d="M2595 3366 c-26 -26 -32 -64 -15 -96 14 -27 64 -40 154 -40 l81 0
-292 -286 c-254 -248 -293 -290 -293 -316 0 -41 15 -64 48 -76 44 -15 76 5
187 118 55 56 176 174 269 263 l169 162 -5 -80 c-6 -91 3 -119 43 -135 36 -16
75 -6 93 23 16 25 43 379 32 422 -11 44 -46 52 -254 59 l-192 7 -25 -25z"/>
<path d="M3745 2838 c-43 -24 -44 -35 -45 -255 l0 -213 -300 0 c-287 0 -301
-1 -320 -20 -19 -19 -20 -33 -20 -400 l0 -380 -296 0 -296 0 -29 -29 -29 -29
0 -266 0 -265 -301 -3 -301 -3 -19 -24 c-18 -22 -19 -44 -19 -411 0 -214 3
-396 6 -405 18 -46 -21 -45 1358 -45 928 0 1302 3 1319 11 14 6 30 22 36 36
16 34 16 2632 0 2666 -6 14 -22 30 -36 36 -34 16 -680 15 -708 -1z m595 -1368
l0 -1220 -240 0 -240 0 0 1220 0 1220 240 0 240 0 0 -1220z m-640 -235 l0
-985 -245 0 -245 0 0 985 0 985 245 0 245 0 0 -985z m-650 -405 l0 -580 -240
0 -240 0 0 580 0 580 240 0 240 0 0 -580z m-640 -295 l0 -285 -245 0 -245 0 0
285 0 285 245 0 245 0 0 -285z"/>
<path d="M1958 2402 c-98 -98 -108 -111 -108 -144 0 -42 36 -78 78 -78 37 0
252 215 252 252 0 42 -36 78 -78 78 -33 0 -46 -10 -144 -108z"/>
<path d="M2355 2266 c-30 -30 -33 -74 -6 -107 16 -19 30 -24 90 -27 l72 -4
-230 -225 c-207 -202 -231 -228 -231 -257 0 -42 35 -76 78 -76 29 0 58 25 250
211 l217 212 5 -63 c4 -49 10 -66 29 -81 31 -25 64 -24 96 4 25 21 26 27 37
195 14 238 36 219 -279 238 -100 5 -103 5 -128 -20z"/>
<path d="M1893 1521 c-82 -65 -153 -147 -153 -176 0 -38 16 -61 48 -73 42 -14
70 2 167 96 95 93 106 122 60 167 -34 35 -65 31 -122 -14z"/>
</g>
</svg>
