<?xml version="1.0" standalone="no"?>
<!DOCTYPE svg PUBLIC "-//W3C//DTD SVG 20010904//EN"
 "http://www.w3.org/TR/2001/REC-SVG-20010904/DTD/svg10.dtd">
<svg version="1.0" xmlns="http://www.w3.org/2000/svg"
 width="512.000000pt" height="512.000000pt" viewBox="0 0 512.000000 512.000000"
 preserveAspectRatio="xMidYMid meet">

<g transform="translate(0.000000,512.000000) scale(0.100000,-0.100000)"
fill="#000000" stroke="none">
<path d="M2427 4917 c-12 -8 -22 -41 -32 -101 -8 -49 -17 -91 -20 -94 -5 -5
-117 -52 -125 -52 -3 0 -36 23 -74 50 -40 29 -79 50 -94 50 -36 0 -192 -156
-192 -191 0 -14 22 -56 50 -94 28 -38 50 -72 50 -75 0 -7 -46 -120 -51 -124
-2 -3 -45 -12 -94 -20 -59 -10 -94 -22 -102 -33 -9 -11 -13 -56 -13 -133 0
-77 4 -122 13 -133 8 -11 43 -23 102 -33 49 -8 91 -16 92 -17 4 -5 53 -120 53
-126 0 -4 -22 -38 -50 -76 -29 -40 -50 -80 -50 -95 0 -36 155 -190 191 -190
14 0 56 22 97 51 l72 51 58 -23 c31 -13 60 -25 64 -28 4 -4 14 -46 22 -96 10
-59 22 -94 33 -102 11 -9 56 -13 133 -13 77 0 122 4 133 13 11 8 23 43 33 102
8 49 16 90 17 91 11 7 121 54 126 54 4 0 37 -22 75 -50 41 -30 79 -50 95 -50
37 0 191 154 191 191 0 14 -22 57 -51 98 l-51 72 27 62 c15 34 28 63 29 64 1
1 42 9 91 17 59 10 94 22 103 33 8 11 12 56 12 133 0 77 -4 122 -12 133 -9 11
-44 23 -103 33 -49 8 -90 16 -91 17 -7 11 -54 121 -54 126 0 4 23 37 50 75 30
41 50 79 50 95 0 37 -154 191 -190 191 -15 0 -56 -22 -95 -50 -38 -27 -73 -50
-78 -50 -4 0 -25 9 -47 20 -22 11 -46 20 -54 20 -21 0 -23 5 -40 105 -10 59
-22 94 -33 103 -23 17 -243 17 -266 -1z m187 -119 c3 -13 11 -54 18 -93 l13
-69 70 -26 c39 -15 89 -36 112 -48 49 -26 57 -24 141 36 l63 45 35 -34 c19
-18 34 -36 34 -39 0 -4 -18 -31 -41 -61 -62 -82 -63 -91 -30 -157 15 -31 36
-81 46 -110 19 -59 29 -66 115 -76 91 -12 90 -12 90 -66 0 -54 1 -54 -90 -66
-86 -10 -96 -17 -115 -76 -10 -29 -31 -79 -46 -110 -18 -35 -26 -64 -22 -75 3
-10 27 -47 51 -81 l45 -64 -35 -35 -36 -36 -76 53 -76 53 -77 -35 c-43 -20
-92 -39 -110 -43 -43 -9 -52 -23 -63 -97 -18 -114 -14 -108 -70 -108 -28 0
-50 1 -50 3 0 27 -32 173 -40 183 -6 7 -26 16 -43 19 -18 4 -67 23 -110 43
l-77 35 -76 -53 -76 -53 -35 36 -36 35 53 76 53 76 -35 77 c-20 43 -39 92 -43
110 -3 17 -12 37 -19 43 -10 8 -156 40 -183 40 -2 0 -3 23 -3 50 0 28 1 50 3
50 27 0 173 32 183 40 7 6 16 26 19 43 4 18 23 67 43 110 l35 77 -52 76 -53
76 33 34 c18 19 36 34 39 34 4 0 31 -18 61 -41 83 -63 88 -63 171 -24 40 19
87 38 105 41 43 8 52 21 64 95 19 117 14 109 69 109 43 0 50 -3 54 -22z"/>
<path d="M2440 4402 c-28 -11 -68 -40 -105 -77 -71 -71 -95 -128 -95 -225 0
-97 24 -154 95 -225 71 -71 128 -95 226 -95 99 0 154 23 225 94 71 72 94 126
94 226 0 100 -23 154 -94 226 -43 42 -76 66 -110 77 -63 22 -177 21 -236 -1z
m198 -108 c80 -33 132 -110 132 -194 0 -114 -96 -210 -210 -210 -146 0 -250
155 -194 288 44 107 168 160 272 116z"/>
<path d="M1495 3568 c-49 -17 -92 -55 -114 -101 -25 -51 -27 -94 -7 -142 8
-19 157 -238 331 -486 174 -248 326 -467 338 -487 21 -35 22 -52 27 -352 l5
-315 27 -47 c16 -25 40 -56 55 -68 l28 -22 5 -597 5 -597 26 -49 c58 -113 205
-148 312 -73 27 19 27 19 55 0 70 -49 145 -54 223 -14 40 20 61 39 84 76 l30
49 5 603 5 602 28 22 c15 12 39 43 55 68 l27 47 5 315 c5 305 6 316 28 353 12
21 164 240 337 487 174 247 322 465 331 486 36 86 -8 187 -99 230 -59 27 -74
29 -129 12 -33 -10 -89 -61 -296 -270 l-256 -258 -406 0 -407 0 -254 258
c-210 213 -262 260 -295 270 -48 14 -68 14 -109 0z m124 -146 c20 -21 137
-140 260 -265 l224 -227 460 0 459 0 37 38 c20 21 137 140 261 265 236 239
247 247 297 212 11 -8 24 -26 27 -41 8 -32 33 5 -355 -547 -170 -240 -316
-452 -326 -470 -16 -28 -19 -70 -23 -347 -6 -353 -7 -358 -77 -402 -37 -23
-42 -23 -303 -23 -259 0 -266 1 -302 23 -21 13 -45 40 -57 66 -20 40 -21 59
-21 329 0 254 -2 292 -18 334 -10 27 -169 261 -352 522 -355 505 -360 513
-311 553 38 30 78 23 120 -20z m881 -2491 l0 -568 -26 -27 c-41 -40 -96 -39
-136 5 l-28 29 0 565 0 565 95 0 95 0 0 -569z m310 4 l0 -565 -27 -29 c-41
-44 -96 -45 -137 -5 l-26 27 0 568 0 569 95 0 95 0 0 -565z"/>
<path d="M2474 2791 c-12 -5 -25 -14 -28 -20 -4 -6 -24 -142 -45 -303 -29
-216 -36 -298 -28 -313 5 -11 44 -57 85 -102 59 -66 80 -83 102 -83 22 0 43
17 103 83 41 45 79 91 85 102 15 30 -61 602 -83 624 -18 18 -156 27 -191 12z
m106 -119 c0 -4 14 -112 30 -241 l31 -233 -40 -43 -39 -43 -41 42 -42 43 31
228 c16 126 30 235 30 242 0 7 9 13 20 13 11 0 20 -3 20 -8z"/>
<path d="M878 3131 c-76 -25 -136 -88 -157 -166 -14 -50 -14 -308 -1 -356 15
-52 49 -99 98 -133 35 -25 55 -31 110 -34 103 -6 179 35 225 122 18 36 22 61
25 197 3 122 1 169 -12 211 -17 59 -64 116 -118 144 -37 19 -132 27 -170 15z
m106 -115 c18 -7 42 -26 54 -41 21 -26 22 -39 22 -189 0 -177 -4 -192 -60
-221 -53 -28 -120 -11 -154 37 -24 34 -23 333 1 368 18 27 37 42 68 52 30 9
33 9 69 -6z"/>
<path d="M4099 3127 c-75 -28 -129 -90 -150 -170 -7 -29 -10 -105 -8 -200 4
-151 5 -155 34 -202 17 -27 50 -63 74 -80 39 -28 49 -30 126 -30 77 0 87 2
126 30 50 35 84 82 99 134 5 20 10 102 10 182 0 154 -9 202 -50 260 -50 70
-178 107 -261 76z m147 -124 c40 -26 49 -68 49 -223 0 -160 -5 -178 -58 -210
-38 -24 -78 -25 -117 -5 -52 27 -60 57 -60 228 0 143 2 156 22 182 41 53 109
64 164 28z"/>
<path d="M150 2658 c-84 -43 -114 -133 -69 -207 11 -18 114 -167 228 -330 115
-163 220 -314 235 -335 l26 -39 0 -210 c0 -233 6 -267 57 -326 l33 -39 0 -409
c0 -250 4 -422 10 -445 30 -105 140 -156 234 -109 37 19 38 19 79 0 101 -46
207 3 237 109 6 23 10 196 10 448 0 405 0 411 21 430 12 10 31 37 43 59 19 37
21 60 26 270 3 127 9 237 14 245 5 8 110 157 232 331 264 374 264 375 264 416
0 71 -37 123 -107 149 -78 30 -98 18 -304 -191 l-182 -185 -292 0 -291 0 -180
182 c-215 218 -236 230 -324 186z m265 -288 l189 -189 141 -3 140 -3 5 -233
c5 -247 6 -252 55 -252 49 0 50 5 55 252 l5 233 140 3 140 2 191 191 c192 192
213 207 237 168 8 -13 -40 -88 -238 -369 -193 -274 -252 -364 -262 -404 -9
-33 -13 -118 -13 -252 l0 -201 -25 -25 c-14 -14 -39 -28 -56 -32 -51 -10 -321
-7 -360 4 -63 18 -63 20 -70 274 -3 138 -10 242 -17 259 -6 15 -122 184 -257
376 -135 192 -245 353 -245 358 0 14 23 33 40 33 8 0 100 -85 205 -190z m475
-1627 c0 -219 -4 -403 -8 -409 -4 -6 -17 -16 -30 -23 -19 -10 -28 -10 -48 4
l-24 15 0 405 0 405 55 0 55 0 0 -397z m220 -8 l0 -405 -24 -15 c-27 -18 -69
-7 -80 20 -3 9 -6 194 -6 411 l0 394 55 0 55 0 0 -405z"/>
<path d="M3402 2673 c-12 -3 -40 -21 -61 -41 -44 -42 -60 -94 -44 -147 6 -17
116 -182 245 -366 129 -184 238 -341 244 -349 5 -8 11 -118 14 -245 5 -252 8
-264 73 -332 l30 -32 -6 -393 c-3 -216 -2 -413 2 -437 22 -113 129 -169 234
-123 45 20 46 20 84 1 87 -44 181 -8 224 86 17 37 19 73 19 458 l0 419 33 39
c51 59 57 93 57 327 l0 210 37 53 c20 30 122 175 226 323 244 347 247 352 247
398 0 105 -111 184 -201 145 -19 -8 -115 -96 -214 -196 l-180 -181 -291 0
-292 0 -171 176 c-199 205 -226 223 -309 207z m243 -303 l190 -190 142 0 143
0 0 -229 c0 -247 3 -261 53 -261 51 1 52 3 57 252 l5 233 140 3 140 2 191 191
c192 192 213 207 237 168 8 -13 -39 -86 -237 -368 -135 -193 -251 -363 -257
-378 -7 -16 -13 -126 -16 -253 -6 -251 -8 -262 -70 -279 -41 -12 -311 -15
-362 -5 -17 4 -42 18 -56 32 l-25 25 0 201 c0 134 -4 219 -13 252 -10 39 -65
124 -234 365 -297 423 -274 388 -262 410 5 10 17 19 27 19 9 0 103 -85 207
-190z m475 -1628 c0 -433 0 -434 -55 -435 -55 0 -55 2 -55 435 l0 398 55 0 55
0 0 -398z m220 -7 l0 -405 -24 -15 c-28 -19 -58 -9 -76 25 -6 12 -10 162 -10
409 l0 391 55 0 55 0 0 -405z"/>
</g>
</svg>
